<?xml version="1.0" encoding="UTF-8"?>
<svg viewBox="0 0 500 500" xmlns="http://www.w3.org/2000/svg">
<path d="m156.36 6.131c-2.457 3.061-4.172 9.244-4.971 17.938-2 22.407-2.115 43.406-0.286 71.935 2.057 32.936 2.457 42.548 2.514 56.69 0 20.693-0.8 30.978-4.057 50.446-2.514 15.061-6.628 33.427-10.457 46.712-4.685 16.285-11.656 39.181-15.827 52.283-9.086 28.529-15.428 51.609-19.428 71.2-2.4 11.754-2.971 13.774-3.943 13.774-0.857 0-12.056-13.713-16.799-20.509-12.513-17.876-20.456-37.467-24.97-61.282-1.714-9.061-1.828-10.836-2.114-25.101-0.229-16.346 0.057-20.325 2.514-34.344 7.485-42.549 30.227-83.261 62.511-111.97 5.543-4.897 16.342-13.671 18.456-14.834l0.04-0.031 31.276-22.427c-1.6-0.613-39.087 24.252-48.229 30.742-50.512 35.63-84.682 87.852-95.767 146.5-2.914 15.305-3.657 24.61-3.314 41.936 0.343 19.591 2.057 31.529 7.086 49.283 5.485 19.591 14.913 38.569 27.598 55.711 5.657 7.591 17.771 20.693 24.57 26.447 15.257 13.102 35.884 24.979 54.055 31.284 19.999 6.918 39.998 10.224 61.94 10.224 33.369-0.061 64.396-7.775 95.995-23.937 41.141-21.06 77.767-57.364 99.195-98.321 31.427-60.058 34.398-127.1 8.171-182.07-9.314-19.407-21.199-35.631-38.227-51.916-1.657-1.592-2.343-2.632-2-3 0.743-0.734 17.314-8.815 26.285-12.856 10.799-4.898 19.713-8.265 35.541-13.652 22.856-7.714 30.455-11.265 31.884-14.877 0.686-1.653 0.628-2.02-0.171-3.061-2.915-3.428-7.543-4.041-27.256-3.367-45.598 1.469-77.596 7.714-133.71 26.141-17.999 5.939-25.599 8.204-33.884 10.102l-6.342 1.469-5.829 6.612c-7.599 8.448-14.97 14.999-17.027 14.999-0.343 0-0.601-0.735-0.83-1.714-0.8-3.796-7.634-19.732-8.491-18.937-0.686 0.551 5.721 16.182 5.206 14.59-0.8-2.449-1.714-2.449-1.542 0.061 0.171 1.653-0.229 2.204-2.4 4.041-2.4 1.959-2.743 2.081-6 1.775-4.971-0.428-8.399-2.326-10.571-5.877-0.914-1.592-1.714-3.49-1.714-4.163 0-1.224 2.144-5.598 9.6-8.448 10.349-3.956 4.685-4.347 1.714-3.674-3.148 0.713-8.286 4.347-15.485 10.898-1.829 1.653-3.371 2.938-3.486 2.816-0.057-0.123-1.314-3.612-2.8-7.775-3.657-10.347-5.085-16.652-5.085-22.162 0.057-4.102-0.172-4.898-1.886-7.959-7.428-13.224-10.685-23.999-17.427-57.548-3.886-19.223-5.372-24.917-7.657-29.08-1.314-2.387-1.772-2.755-3.429-2.755-1.085 0-2.228 0.429-2.742 1.041zm60.111 113.69c0 0.123-0.4 0.429-0.914 0.613-0.457 0.183-0.686 0.122-0.515-0.245 0.343-0.612 1.429-0.857 1.429-0.368zm145.59 15.734c1.771 2.082 3.6 4.225 4 4.776 7.428 10.223 12.17 18.06 16.056 26.325 12.685 26.998 17.542 55.282 14.628 85.709-0.972 10.469-1.543 13.897-3.714 23.631-5.886 26.264-17.999 52.161-35.256 75.302-4.971 6.734-24.684 28.468-25.77 28.468-0.343 0-1.828-2.571-3.314-5.694-1.486-3.061-4.457-9.183-6.628-13.53-3.429-6.856-11.314-24.488-11.314-25.223 0-0.122-2.171-5.265-4.8-11.448-8.799-20.387-30.57-77.077-35.141-91.158-2.571-8.081-3.143-9.367-4.8-11.387-5.199-6.061-25.027 9.305-46.226 35.875-13.428 16.775-16.285 21.428-16.856 27.305-0.457 4.53 1.028 7.408 8.057 15.673 19.084 22.651 86.738 89.75 96.68 95.872 0.915 0.612 0.972 0.795 0.286 1.714-2.628 3.367-27.141 15.917-40.626 20.754-23.085 8.265-41.941 11.326-66.283 10.652-23.484-0.612-45.369-6.122-65.139-16.407-8.914-4.653-20.571-11.938-20.571-12.918 0-0.796 12.571-26.508 17.599-35.998 12.514-23.692 29.713-51.915 41.713-68.567 2.057-2.878 6.228-8.632 9.199-12.734 13.257-18.489 38.227-47.385 55.769-64.405 24.113-23.508 51.026-45.058 79.196-63.486 13.542-8.877 37.484-22.774 39.255-22.835 0.4 0 2.228 1.714 4 3.734zm-152.62 6.122c0.857 0.368 3.428 1.164 5.599 1.715 2.743 0.734 3.943 1.346 3.886 1.959-0.057 0.489-0.514 2.755-1.029 5.142-0.514 2.327-1.771 9.796-2.857 16.53-8.113 50.446-12.856 78.179-13.77 80.016-0.457 0.979-2.172 2.693-3.829 3.795-3.314 2.266-13.77 8.326-14.342 8.326-0.4 0-2-2.632-7.199-12.06l-4.114-7.469 1.428-3.857c0.8-2.143 3.028-8.142 4.971-13.346s4-10.897 4.571-12.55c1.029-3.061 4.914-14.02 16.285-45.916 3.372-9.428 6.514-18.428 6.971-20.081 0.915-3.122 1.029-3.183 3.429-2.204z" stroke-width=".059"/>
<path d="m236.41 11.58c-6.114 1.163-10.171 2.877-15.257 6.55-15.37 11.02-21.941 28.713-17.542 47.018 3.6 14.693 15.714 27.243 30.228 31.162 5.485 1.469 14.97 1.653 20.17 0.306 13.771-3.49 25.542-14.816 30.284-29.203 2-5.938 2.457-16.591 1.029-22.529-2.114-8.877-6.057-16.101-11.885-21.795-10.457-10.224-23.314-14.203-37.027-11.509z" stroke-width=".059"/>
<path d="m221.27 123.49c3.648 9.043 9.115 20.929 3.903 3.583-0.194-0.645-0.989-0.767-1.332-0.767s-0.457-0.674-0.229-1.714c0.4-2.082-1.714-5.816-3.542-6.122-1.086-0.184-0.763 0.154 1.2 5.02z" stroke-width=".059"/>
<path d="m198.99 133.71 29.941 7.821-8.848-22.278-3.555-0.158" stroke="#000"/>
<path d="m204.6 138.33 21.636 6.181-1.734-19.091-8.385-6.093-2.222 0.899-10.395 10.024 1.1 8.08z" stroke="#000"/>
<path transform="matrix(.99996 .009179 -.009179 .99996 1.2422 -1.9844)" d="m207.81 137.92c-0.264 0.205-1.882-9.575 0.135-11.122s17.872 4.219 17.872 4.219c0.759 3.126-5.583 12.155-6.103 10.618-0.051-0.149-11.935-3.804-11.904-3.715z" fill="#fff" stroke="#000"/>
<path d="m220.48 119.35c3.252 0.321 13.459 22.895 12.408 23.306 0 0-2.226-0.319-2.314-0.319" stroke="#000"/>
</svg>
