<svg xmlns="http://www.w3.org/2000/svg" version="1.0" width="811.000000pt" height="818.000000pt" viewBox="0 0 811.000000 818.000000" preserveAspectRatio="xMidYMid meet">

<g transform="translate(0.000000,818.000000) scale(0.100000,-0.100000)" fill="#007aff" stroke="none">
<path d="M5633 8126 c-23 -8 -62 -25 -86 -38 -69 -39 -717 -540 -764 -591 -61 -67 -95 -139 -100 -217 -4 -56 1 -84 36 -194 22 -71 39 -131 38 -133 -2 -1 -239 -78 -528 -169 -288 -92 -528 -170 -533 -175 -5 -4 -28 -89 -51 -189 -23 -99 -44 -182 -46 -184 -7 -6 -390 -126 -402 -126 -7 0 -51 63 -97 140 -47 76 -89 139 -93 140 -5 0 -79 -22 -165 -50 l-157 -50 -50 -97 -50 -97 -202 -65 -202 -64 -81 51 c-45 29 -86 52 -92 52 -6 0 -35 -8 -64 -17 -52 -16 -65 -29 -356 -352 -167 -184 -311 -344 -320 -356 l-17 -22 123 -27 124 -27 219 70 c120 38 890 284 1712 546 821 262 1499 479 1506 482 16 6 62 -135 48 -147 -4 -5 -460 -152 -1013 -329 -1966 -626 -2150 -685 -2142 -692 8 -7 328 -79 354 -79 9 0 286 86 615 191 329 105 971 310 1427 455 456 146 830 263 831 262 2 -2 22 -63 46 -136 47 -147 82 -200 162 -246 84 -49 133 -55 512 -71 420 -17 604 -19 639 -5 20 7 30 25 50 87 67 213 86 451 41 509 -14 18 -20 14 -92 -62 -76 -79 -129 -122 -138 -112 -3 3 -126 385 -274 849 -193 604 -266 846 -258 851 20 13 56 9 247 -28 201 -38 252 -59 292 -118 13 -18 86 -232 163 -475 l140 -441 47 -16 c66 -21 157 -83 202 -135 58 -68 113 -190 135 -299 l18 -95 18 40 c9 22 19 69 22 105 5 63 -3 89 -245 848 -139 433 -262 802 -277 827 -31 53 -101 108 -165 130 -25 8 -151 35 -281 60 -250 47 -349 55 -426 31z" fill="#007aff"/>
<path d="M6350 6506 c-77 -23 -102 -36 -97 -49 3 -8 17 -54 32 -103 l27 -90 70 24 c117 39 190 13 236 -86 25 -53 27 -66 27 -197 -1 -97 -6 -166 -19 -225 -75 -349 -292 -741 -571 -1029 -217 -224 -374 -289 -513 -210 -46 26 -214 69 -269 69 -18 0 21 -102 63 -166 64 -97 159 -144 292 -144 132 0 272 51 419 152 337 231 700 832 793 1313 26 135 28 322 5 421 -44 191 -194 323 -374 331 -44 1 -95 -3 -121 -11z" fill="#007aff"/>
<path d="M5382 5429 c-32 -75 -84 -240 -78 -246 3 -3 50 -14 105 -23 l98 -16 18 54 c9 30 36 101 60 158 l44 104 -68 0 c-38 0 -89 3 -114 6 l-47 7 -18 -44z" fill="#007aff"/>
<path d="M3355 5108 c-293 -25 -814 -118 -1033 -184 -132 -39 -261 -97 -310 -139 -41 -35 -91 -133 -175 -345 -66 -167 -213 -578 -282 -790 -21 -63 -40 -118 -42 -122 -2 -4 -19 0 -37 9 -33 15 -33 17 -39 95 -7 112 -43 182 -106 212 -42 19 -62 21 -251 21 -178 0 -216 -3 -293 -23 -149 -37 -197 -71 -197 -136 0 -61 58 -152 170 -266 135 -138 191 -154 366 -104 l91 27 42 -33 c22 -18 41 -36 41 -39 0 -3 -62 -37 -137 -75 -161 -81 -237 -149 -292 -260 -57 -115 -95 -388 -95 -676 0 -225 9 -303 72 -605 l46 -220 6 -580 5 -580 24 -45 c38 -72 63 -99 125 -141 102 -68 113 -70 553 -70 264 0 407 4 435 12 109 29 204 105 249 196 20 40 24 68 27 161 2 61 7 112 11 112 3 0 101 -7 216 -15 467 -32 769 -40 1575 -40 806 0 1108 8 1575 40 116 8 213 15 216 15 4 0 9 -51 11 -112 4 -118 16 -155 72 -231 30 -40 128 -104 189 -122 75 -22 818 -23 893 0 72 21 163 84 203 139 61 87 61 86 61 671 l0 531 45 223 c71 356 79 420 79 656 0 206 -13 348 -49 542 -20 106 -68 196 -145 273 -55 54 -88 76 -198 130 -73 35 -132 67 -132 70 0 3 19 20 41 39 l41 34 92 -26 c175 -51 231 -35 366 103 112 114 170 205 170 266 0 65 -49 99 -192 135 -105 26 -401 38 -491 19 -106 -22 -154 -89 -164 -231 -6 -75 -6 -77 -40 -93 -26 -12 -35 -13 -38 -3 -3 6 -36 104 -74 217 -117 347 -280 793 -296 809 -3 2 -42 -32 -88 -75 -45 -44 -108 -100 -140 -124 -42 -31 -56 -48 -51 -59 46 -111 314 -877 314 -897 0 -2 -1021 -4 -2270 -4 -1248 0 -2270 2 -2270 4 0 14 206 608 267 770 109 290 148 371 187 390 165 78 574 167 1016 222 176 22 1146 32 1407 15 260 -17 712 -88 930 -144 50 -13 54 -13 103 14 92 50 273 209 253 222 -5 3 -56 19 -113 36 -216 65 -734 155 -1035 181 -144 12 -1367 11 -1510 -2z m-1740 -2413 c297 -69 548 -129 557 -133 10 -4 85 -116 167 -249 l150 -243 -37 0 c-159 0 -840 41 -1089 65 -247 25 -344 45 -373 81 -22 26 -17 249 8 394 37 202 42 221 60 216 10 -3 260 -61 557 -131z m5595 83 c26 -123 51 -290 56 -383 7 -114 -5 -177 -39 -200 -46 -30 -317 -63 -732 -90 -340 -21 -725 -38 -732 -31 -4 4 272 461 293 485 2 3 1113 267 1136 270 3 1 11 -23 18 -51z m-1849 -387 l29 -29 0 -247 0 -247 -29 -29 -29 -29 -1211 0 -1210 0 -28 24 -28 24 0 257 0 257 28 24 28 24 1210 0 1211 0 29 -29z m-3427 -701 c357 -44 653 -83 657 -87 16 -18 529 -793 524 -793 -2 0 -122 106 -265 235 -143 129 -270 237 -283 240 -12 2 -285 43 -607 90 -322 47 -592 90 -600 94 -13 7 -100 257 -100 289 0 6 6 12 13 12 6 0 304 -36 661 -80z m5007 -70 c-37 -122 -50 -152 -66 -155 -11 -3 -281 -43 -600 -90 -319 -47 -590 -88 -601 -90 -12 -3 -139 -111 -283 -240 -143 -129 -263 -235 -266 -235 -5 0 507 773 524 793 7 7 1240 164 1307 166 l31 1 -46 -150z" fill="#007aff"/>
</g>
</svg>